<svg
  viewBox="0 0 29 29"
  fill="none"
  xmlns="http://www.w3.org/2000/svg"
>
  <path
    d="M5.9472 25.594C6.41643 25.594 6.79681 25.2136 6.79681 24.7444C6.79681 24.2752 6.41643 23.8948 5.9472 23.8948C5.47798 23.8948 5.0976 24.2752 5.0976 24.7444C5.0976 25.2136 5.47798 25.594 5.9472 25.594Z"
    fill="currentColor"
  />
  <path
    d="M24.7518 25.594C25.221 25.594 25.6014 25.2136 25.6014 24.7444C25.6014 24.2752 25.221 23.8948 24.7518 23.8948C24.2825 23.8948 23.9022 24.2752 23.9022 24.7444C23.9022 25.2136 24.2825 25.594 24.7518 25.594Z"
    fill="currentColor"
  />
  <path
    d="M28.1502 11.8878C26.3872 11.8878 11.9887 11.8878 8.81878 11.8878L28.3789 6.41898C28.8467 6.28814 29.1095 5.79236 28.9562 5.3321L27.7624 1.75077C27.3372 0.475339 25.9865 -0.252323 24.6886 0.0937514C24.5952 0.118333 2.43079 5.9991 2.37607 6.01366C0.974049 6.38754 0.156555 7.8653 0.607584 9.2607L1.01183 10.7059C0.397674 11.1716 0 11.9088 0 12.7374C0 13.845 0.71033 14.7894 1.69922 15.1401V26.4443C1.69922 27.8498 2.84262 28.9932 4.24805 28.9932H26.451C27.8564 28.9932 28.9998 27.8498 28.9998 26.4443V12.7374C28.9998 12.2682 28.6194 11.8878 28.1502 11.8878ZM23.1643 13.587L20.8987 16.9855H17.7866L20.0522 13.587H23.1643ZM18.0101 13.587L15.7445 16.9855H12.6323L14.898 13.587H18.0101ZM9.80036 13.587H12.8558L10.5902 16.9855H7.53473L9.80036 13.587ZM5.49256 16.9854H3.39844V15.14C4.1214 14.8836 4.69511 14.3099 4.95152 13.587H7.75824L5.49256 16.9854ZM25.1254 1.73588C25.5586 1.62033 26.0087 1.86303 26.1504 2.28812L27.062 5.02285L25.5053 5.45807L21.8876 2.59494L25.1254 1.73588ZM19.8369 3.13898L23.482 6.02369L20.1126 6.96573L16.4219 4.045L19.8369 3.13898ZM14.3713 4.58909L18.0893 7.53152L14.7211 8.47322L10.9879 5.48673L14.3713 4.58909ZM8.94537 6.02867L12.7055 9.03674L9.36966 9.96938L5.56489 6.92552L8.94537 6.02867ZM2.81294 7.65567L3.52225 7.46745L7.35405 10.5329L4.64532 11.2902C4.19973 10.6467 3.46607 10.2177 2.6322 10.1907L2.239 8.7848C2.23532 8.77143 2.23119 8.75818 2.22683 8.74498C2.07101 8.27753 2.34317 7.78096 2.81294 7.65567ZM2.54883 13.587C2.08035 13.587 1.69922 13.2059 1.69922 12.7374C1.69922 12.2689 2.08035 11.8878 2.54883 11.8878C3.0173 11.8878 3.39844 12.2689 3.39844 12.7374C3.39844 13.2059 3.0173 13.587 2.54883 13.587ZM27.3006 26.4443C27.3006 26.9128 26.9194 27.2939 26.4509 27.2939H4.24799C3.77952 27.2939 3.39838 26.9128 3.39838 26.4443V18.6846C5.91895 18.6846 24.532 18.6846 27.3006 18.6846V26.4443ZM27.3006 16.9854H22.9409L25.2065 13.587H27.3006V16.9854H27.3006Z"
    fill="currentColor"
  />
</svg>
