<svg
  viewBox="0 0 124 27"
  fill="none"
  xmlns="http://www.w3.org/2000/svg"
>
  <path
    d="M21.5668 12.6505L19.4574 15.8146H16.5599L18.6693 12.6505H21.5668ZM16.768 12.6505L14.6586 15.8146H11.7611L13.8705 12.6505H16.768ZM9.12447 12.6505H11.9692L9.85985 15.8146H7.0151L9.12447 12.6505ZM5.11376 15.8145H3.16406V14.0965C3.83716 13.8577 4.37131 13.3236 4.61004 12.6505H7.22319L5.11376 15.8145ZM23.3927 1.61671C23.7959 1.50913 24.215 1.7351 24.3469 2.13087L25.1956 4.67699L23.7463 5.08221L20.3781 2.41654L23.3927 1.61671ZM18.4688 2.92305L21.8626 5.60881L18.7255 6.48589L15.2894 3.76659L18.4688 2.92305ZM13.3801 4.27315L16.8418 7.01265L13.7058 7.88941L10.2302 5.10889L13.3801 4.27315ZM8.32845 5.61345L11.8292 8.41407L8.72348 9.28239L5.1811 6.44845L8.32845 5.61345ZM2.61895 7.12825L3.27934 6.95301L6.84687 9.80705L4.32496 10.5122C3.9101 9.91299 3.22703 9.51358 2.45067 9.48843L2.08459 8.17951C2.08116 8.16706 2.07731 8.15472 2.07325 8.14243C1.92818 7.70722 2.18157 7.24489 2.61895 7.12825ZM2.37305 12.6505C1.93688 12.6505 1.58203 12.2957 1.58203 11.8595C1.58203 11.4234 1.93688 11.0685 2.37305 11.0685C2.80921 11.0685 3.16406 11.4234 3.16406 11.8595C3.16406 12.2957 2.80921 12.6505 2.37305 12.6505ZM25.4178 24.6211C25.4178 25.0573 25.0629 25.4122 24.6267 25.4122H3.95503C3.51886 25.4122 3.16401 25.0573 3.16401 24.6211V17.3966C5.51074 17.3966 22.8401 17.3966 25.4178 17.3966V24.6211ZM25.4178 15.8145H21.3587L23.4681 12.6505H25.4178L25.4178 15.8145Z"
    fill="currentColor"
  />
  <path
    d="M38.4575 22.7747L43.0345 12.6598C43.3042 12.0866 43.5065 11.7241 43.6414 11.5724C43.928 11.3195 44.2146 11.1931 44.5011 11.1931C44.8046 11.1931 45.0322 11.2268 45.1839 11.2943C45.3525 11.3617 45.4958 11.4544 45.6138 11.5724C45.9004 11.859 46.0437 12.2383 46.0437 12.7103V24.2414C46.0437 24.4943 45.9594 24.6881 45.7908 24.823C45.6391 24.941 45.4621 25 45.2598 25C45.0575 25 44.8805 24.941 44.7287 24.823C44.577 24.6881 44.5011 24.4943 44.5011 24.2414V12.9126L39.4943 23.9379C39.292 24.4437 38.9379 24.6966 38.4322 24.6966C37.9939 24.6966 37.6483 24.4437 37.3954 23.9379L32.4138 12.9632V24.2414C32.4138 24.4943 32.3295 24.6881 32.1609 24.823C32.0092 24.941 31.8322 25 31.6299 25C31.4276 25 31.2421 24.941 31.0736 24.823C30.9218 24.6881 30.846 24.4943 30.846 24.2414V12.7103C30.846 11.9686 31.1157 11.4966 31.6552 11.2943C31.8406 11.2605 32.0261 11.2352 32.2115 11.2184C32.4138 11.2015 32.5908 11.2184 32.7425 11.269C32.9111 11.3195 33.0544 11.3954 33.1724 11.4966C33.3747 11.6651 33.6276 12.0529 33.931 12.6598L38.4322 22.7747H38.4575ZM53.1799 19.1333V24.1655C53.1799 24.5533 53.0029 24.8146 52.6489 24.9494C52.5478 24.9831 52.4129 25 52.2443 25C52.0757 25 51.8987 24.9326 51.7133 24.7977C51.5278 24.6628 51.4351 24.4521 51.4351 24.1655V19.1586L46.9592 12.3563C46.875 12.2552 46.8328 12.1456 46.8328 12.0276C46.8328 11.9096 46.8581 11.8 46.9087 11.6989C46.9592 11.5977 47.0351 11.505 47.1363 11.4207C47.3386 11.269 47.5409 11.1931 47.7432 11.1931C48.114 11.1931 48.3838 11.3448 48.5524 11.6483L52.4213 17.7931H52.4466L56.3409 11.5977C56.5094 11.328 56.7455 11.1931 57.0489 11.1931C57.3861 11.1931 57.6221 11.328 57.7569 11.5977C57.8244 11.682 57.8581 11.7663 57.8581 11.8506C57.8581 11.9517 57.816 12.0697 57.7317 12.2046L53.1799 19.1333ZM66.1328 22.7747L70.7098 12.6598C70.9795 12.0866 71.1818 11.7241 71.3167 11.5724C71.6033 11.3195 71.8899 11.1931 72.1765 11.1931C72.4799 11.1931 72.7075 11.2268 72.8592 11.2943C73.0278 11.3617 73.1711 11.4544 73.2891 11.5724C73.5757 11.859 73.719 12.2383 73.719 12.7103V24.2414C73.719 24.4943 73.6347 24.6881 73.4661 24.823C73.3144 24.941 73.1374 25 72.9351 25C72.7328 25 72.5558 24.941 72.404 24.823C72.2523 24.6881 72.1765 24.4943 72.1765 24.2414V12.9126L67.1696 23.9379C66.9673 24.4437 66.6132 24.6966 66.1075 24.6966C65.6692 24.6966 65.3236 24.4437 65.0707 23.9379L60.0891 12.9632V24.2414C60.0891 24.4943 60.0048 24.6881 59.8362 24.823C59.6845 24.941 59.5075 25 59.3052 25C59.1029 25 58.9175 24.941 58.7489 24.823C58.5972 24.6881 58.5213 24.4943 58.5213 24.2414V12.7103C58.5213 11.9686 58.791 11.4966 59.3305 11.2943C59.5159 11.2605 59.7014 11.2352 59.8868 11.2184C60.0891 11.2015 60.2661 11.2184 60.4178 11.269C60.5864 11.3195 60.7297 11.3954 60.8477 11.4966C61.05 11.6651 61.3029 12.0529 61.6063 12.6598L66.1075 22.7747H66.1328ZM77.138 16.1241C76.9863 16.8153 76.9104 17.4981 76.9104 18.1724C76.9104 18.8299 76.9863 19.5126 77.138 20.2207C77.3066 20.9287 77.5848 21.5525 77.9725 22.092C78.3602 22.6146 78.8407 23.036 79.4139 23.3563C79.9871 23.6766 80.6867 23.8368 81.5127 23.8368C82.3388 23.8368 83.0468 23.6766 83.6369 23.3563C84.2269 23.036 84.7074 22.6146 85.0782 22.092C85.4491 21.5525 85.7189 20.9287 85.8874 20.2207C86.0729 19.5126 86.1656 18.8299 86.1656 18.1724C86.1656 17.4981 86.0729 16.8153 85.8874 16.1241C85.7189 15.4161 85.4491 14.8008 85.0782 14.2782C84.7074 13.7387 84.2269 13.3088 83.6369 12.9885C83.0468 12.6682 82.3388 12.508 81.5127 12.508C80.6867 12.508 79.9871 12.6682 79.4139 12.9885C78.8407 13.3088 78.3602 13.7387 77.9725 14.2782C77.5848 14.8008 77.3066 15.4161 77.138 16.1241ZM75.0139 18.1218C75.0139 17.1441 75.1572 16.2169 75.4438 15.3402C75.7303 14.4636 76.1602 13.7134 76.7334 13.0897C77.8798 11.7747 79.4644 11.1088 81.4874 11.092C83.5441 11.092 85.1541 11.7579 86.3173 13.0897C86.8736 13.7134 87.2867 14.4636 87.5564 15.3402C87.843 16.2169 87.9863 17.1441 87.9863 18.1218C87.9863 19.1165 87.843 20.069 87.5564 20.9793C87.2867 21.8728 86.8736 22.623 86.3173 23.2299C85.1541 24.5448 83.5441 25.2023 81.4874 25.2023C79.4476 25.2023 77.8629 24.5448 76.7334 23.2299C76.1602 22.5893 75.7303 21.8307 75.4438 20.954C75.1572 20.0605 75.0139 19.1165 75.0139 18.1218ZM93.7409 23.5333L97.8628 11.8C98.0482 11.3954 98.3179 11.1931 98.672 11.1931C98.8743 11.1931 99.0428 11.2437 99.1777 11.3448C99.38 11.5134 99.4812 11.7157 99.4812 11.9517V12.0529C99.4812 12.0866 99.4643 12.1372 99.4306 12.2046L95.1064 23.9885C94.9041 24.6628 94.4237 25 93.6651 25C92.9907 25 92.5356 24.6628 92.2995 23.9885L87.8995 12.2552C87.8658 12.154 87.849 12.0613 87.849 11.977C87.849 11.8927 87.8743 11.8 87.9248 11.6989C87.9754 11.5977 88.0428 11.505 88.1271 11.4207C88.3126 11.269 88.5064 11.1931 88.7087 11.1931C89.1302 11.1931 89.3999 11.3785 89.5179 11.7494L93.7409 23.5333ZM100.122 12.0276C100.122 11.6736 100.29 11.4207 100.627 11.269C100.728 11.2521 100.872 11.2352 101.057 11.2184C101.243 11.2015 101.411 11.2605 101.563 11.3954C101.731 11.5303 101.816 11.741 101.816 12.0276V24.1655C101.816 24.5701 101.639 24.8314 101.285 24.9494C101.184 24.9831 101.049 25 100.88 25C100.712 25 100.543 24.9326 100.374 24.7977C100.206 24.6628 100.122 24.4521 100.122 24.1655V12.0276ZM104.839 25C104.637 25 104.468 24.9326 104.333 24.7977C104.097 24.5954 103.979 24.3847 103.979 24.1655V12.0529C103.979 11.7326 104.148 11.4797 104.485 11.2943C104.586 11.2605 104.687 11.2268 104.788 11.1931H111.995C112.248 11.1931 112.433 11.269 112.551 11.4207C112.669 11.5724 112.728 11.741 112.728 11.9264C112.728 12.095 112.661 12.2552 112.526 12.4069C112.391 12.5586 112.214 12.6345 111.995 12.6345H105.648V17.2115H111.692C111.945 17.2115 112.13 17.2874 112.248 17.4391C112.366 17.5739 112.425 17.7341 112.425 17.9195C112.425 18.0881 112.358 18.2398 112.223 18.3747C112.088 18.5096 111.911 18.577 111.692 18.577H105.648V23.5839H112.273C112.509 23.5839 112.686 23.6598 112.804 23.8115C112.922 23.9632 112.981 24.1318 112.981 24.3172C112.981 24.5027 112.914 24.6628 112.779 24.7977C112.661 24.9326 112.492 25 112.273 25H104.839ZM115.529 14.6828C115.529 15.0368 115.647 15.3739 115.883 15.6943C116.119 15.9977 116.422 16.2506 116.793 16.4529C117.164 16.6552 117.585 16.8322 118.057 16.9839C118.529 17.1356 119.027 17.2958 119.549 17.4644C120.072 17.633 120.586 17.8184 121.092 18.0207C121.597 18.223 122.036 18.4759 122.407 18.7793C123.216 19.4368 123.62 20.3303 123.62 21.4598C123.62 21.9992 123.494 22.5134 123.241 23.0023C122.988 23.4743 122.634 23.8705 122.179 24.1908C121.252 24.8651 120.013 25.2023 118.462 25.2023C116.995 25.2023 115.706 24.8314 114.593 24.0897C113.902 23.6513 113.556 23.2805 113.556 22.977C113.556 22.7073 113.691 22.4881 113.961 22.3195C114.028 22.2521 114.112 22.2184 114.214 22.2184C114.315 22.2184 114.424 22.2605 114.542 22.3448C114.66 22.4291 114.795 22.5303 114.947 22.6483C115.115 22.7663 115.318 22.9011 115.554 23.0529C115.807 23.1877 116.068 23.3142 116.338 23.4322C117.012 23.7019 117.67 23.8284 118.31 23.8115C118.951 23.7946 119.465 23.7441 119.853 23.6598C120.24 23.5755 120.586 23.4322 120.889 23.2299C121.53 22.7916 121.859 22.2352 121.876 21.5609C121.876 20.718 121.463 20.069 120.637 19.6138C120.266 19.4115 119.844 19.2345 119.372 19.0828C118.917 18.9142 118.428 18.754 117.906 18.6023C117.4 18.4506 116.894 18.2651 116.388 18.046C115.883 17.8268 115.436 17.5655 115.048 17.2621C114.222 16.6046 113.809 15.7617 113.809 14.7333C113.809 14.1939 113.935 13.6881 114.188 13.2161C114.458 12.7441 114.82 12.3563 115.276 12.0529C116.152 11.4291 117.248 11.1088 118.563 11.092C120.468 11.092 122.002 11.7073 123.165 12.9379C123.233 13.0391 123.266 13.1571 123.266 13.292C123.266 13.41 123.258 13.5111 123.241 13.5954C123.241 13.6797 123.199 13.764 123.115 13.8483C122.997 14 122.837 14.0759 122.634 14.0759C122.449 14.0759 122.247 13.9494 122.027 13.6966C121.471 13.292 121.024 13.0307 120.687 12.9126C120.013 12.6429 119.355 12.508 118.715 12.508C117.889 12.508 117.181 12.6766 116.591 13.0138C115.883 13.4184 115.529 13.9747 115.529 14.6828Z"
    fill="currentColor"
  />
</svg>
